<?xml version="1.0" encoding="UTF-8"?>
<svg width="24px" height="23px" viewBox="0 0 24 23" version="1.1" xmlns="http://www.w3.org/2000/svg" xmlns:xlink="http://www.w3.org/1999/xlink">
    <!-- Generator: Sketch 48.2 (47327) - http://www.bohemiancoding.com/sketch -->
    <title>Combined Shape</title>
    <desc>Created with Sketch.</desc>
    <defs></defs>
    <g id="Mobile-Portrait-Copy-5" stroke="none" stroke-width="1" fill="none" fill-rule="evenodd" transform="translate(-123.000000, -421.000000)">
        <g id="Group-3" transform="translate(74.000000, 420.000000)" fill="#FF0066">
            <path d="M49.960113,1.66666667 L72.9147254,1.66666667 L72.9147254,23.6032367 L49.960113,23.6032367 L49.960113,1.66666667 Z M54.8363858,7.74931895 C54.8363858,8.540305 55.2741647,8.93579209 56.1497356,8.93579209 C56.5875211,8.93579209 56.9158553,8.83164716 57.134748,8.62335417 C57.3536408,8.41506117 57.4630855,8.12371902 57.4630855,7.74931895 C57.4630855,6.96360615 57.0253066,6.57075564 56.1497356,6.57075564 C55.2741647,6.57075564 54.8363858,6.96360615 54.8363858,7.74931895 Z M57.352321,18.878437 L57.352321,10.0352572 L54.9392385,10.0352572 L54.9392385,18.878437 L57.352321,18.878437 Z M68.0490016,18.878437 L68.0490016,13.1121775 C68.0490016,12.0628027 67.7826422,11.2599639 67.2499153,10.7036371 C66.7171884,10.1473102 65.9365706,9.86915096 64.9080385,9.86915096 C64.3067428,9.86915096 63.770068,9.97856906 63.2979982,10.1974085 C62.8259283,10.416248 62.4553986,10.7392291 62.1863978,11.1663616 L62.0518982,11.1663616 L61.7275166,10.0352572 L59.8840798,10.0352572 L59.8840798,18.878437 L62.2971623,18.878437 L62.2971623,14.7178712 C62.2971623,13.6737696 62.447484,12.926299 62.7481318,12.475437 C63.0487797,12.0245749 63.5366658,11.7991473 64.2118048,11.7991473 C64.70761,11.7991473 65.0689095,11.9586604 65.295714,12.2776914 C65.5225185,12.5967225 65.6359191,13.0752618 65.6359191,13.7133239 L65.6359191,18.878437 L68.0490016,18.878437 Z" id="Combined-Shape"></path>
        </g>
    </g>
</svg>